<svg width="176" height="187" viewBox="0 0 176 187" fill="none" xmlns="http://www.w3.org/2000/svg">
<g filter="url(#filter0_d_95_45422)">
<path d="M23.4578 132.015C20.5011 130.308 20.5011 127.54 23.4578 125.833L94.6983 85.4634C97.6551 83.7563 102.449 83.7563 105.406 85.4634L152.25 112.509C155.206 114.216 155.206 116.984 152.25 118.691L81.0091 159.061C78.0524 160.768 73.2586 160.768 70.3019 159.061L23.4578 132.015Z" fill="url(#paint0_linear_95_45422)"/>
<path d="M21.2363 123.636H26.9545V128.891H21.2363V123.636Z" fill="url(#paint1_linear_95_45422)"/>
<path d="M148.711 110.809H154.43V116.063H148.711V110.809Z" fill="url(#paint2_linear_95_45422)"/>
</g>
<path d="M23.4578 126.869C20.5011 125.162 20.5011 122.395 23.4578 120.688L94.5605 80.3638C97.5173 78.6567 102.311 78.6567 105.268 80.3638L152.112 107.409C155.069 109.116 155.069 111.884 152.112 113.591L81.0091 153.915C78.0524 155.622 73.2586 155.622 70.3019 153.915L23.4578 126.869Z" fill="#F4F4F4"/>
<path d="M55.1953 24.4192C55.1953 12.4284 63.6135 7.56819 73.9978 13.5636C84.3821 19.559 92.8003 34.1396 92.8003 46.1304V111.496C92.8003 123.487 84.3821 128.347 73.9978 122.352C63.6135 116.356 55.1953 101.776 55.1953 89.7848V24.4192Z" fill="url(#paint3_linear_95_45422)"/>
<path d="M98.1306 15.7562L93.8111 13.2761C86.7061 9.19659 71.1737 8.49244 63.5901 11.1811C66.5702 10.6104 70.1489 11.3413 73.9976 13.5634C84.382 19.5588 92.8001 34.1395 92.8001 46.1302V111.496C92.8001 118.803 89.6735 123.463 84.8807 124.63C96.4357 124.001 112.591 114.472 112.591 102.883V40.6922C112.591 30.4011 107.078 20.8933 98.1306 15.7562Z" fill="url(#paint4_linear_95_45422)"/>
<path d="M59.4535 13.1167C59.5533 13.0338 59.6546 12.9533 59.7574 12.8751C59.6413 12.9372 59.5256 13.0003 59.4102 13.0642L59.4535 13.1167Z" fill="url(#paint5_linear_95_45422)"/>
<path d="M73.556 111.244C75.1983 112.168 77.2275 110.981 77.2275 109.097V61.2072C77.2275 59.4508 76.2926 57.8272 74.7735 56.9456L67.1313 52.5104C65.4888 51.5572 63.431 52.7422 63.431 54.6412V102.667C63.431 104.448 64.3911 106.089 65.9426 106.962L73.556 111.244Z" fill="url(#paint6_linear_95_45422)"/>
<path d="M73.5565 108.598C75.1988 109.521 77.2275 108.334 77.2275 106.45V61.2702C77.2275 59.5134 76.2921 57.8895 74.7725 57.008L68.609 53.4329C66.9665 52.4802 64.9092 53.6653 64.9092 55.564V100.854C64.9092 102.634 65.8698 104.276 67.4218 105.149L73.5565 108.598Z" fill="url(#paint7_linear_95_45422)"/>
<path d="M72.2507 68.5958C73.7256 69.4374 75.5596 68.3724 75.5596 66.6743V63.2186C75.5596 61.6512 74.7304 60.2007 73.3796 59.4055L69.6024 57.1818C68.1275 56.3135 66.2676 57.3769 66.2676 59.0883V62.6122C66.2676 64.201 67.1194 65.6679 68.4994 66.4553L72.2507 68.5958Z" fill="#469EFF"/>
<path d="M72.3591 68.7216C73.3915 69.3101 74.6746 68.5645 74.6746 67.3762V63.4873C74.6746 61.9191 73.8446 60.4681 72.4928 59.6732L68.7134 57.4506C67.5336 56.7568 66.0464 57.6075 66.0464 58.9763V62.5525C66.0464 64.1421 66.899 65.6095 68.28 66.3967L72.3591 68.7216Z" fill="url(#paint8_linear_95_45422)"/>
<path d="M72.2507 80.9596C73.7256 81.8012 75.5596 80.7362 75.5596 79.038V75.5823C75.5596 74.0149 74.7304 72.5645 73.3796 71.7693L69.6024 69.5455C68.1275 68.6773 66.2676 69.7406 66.2676 71.4521V74.976C66.2676 76.5648 67.1194 78.0316 68.4994 78.8191L72.2507 80.9596Z" fill="#469EFF"/>
<path d="M72.3591 81.0854C73.3915 81.6738 74.6746 80.9283 74.6746 79.7399V75.8511C74.6746 74.2829 73.8446 72.8319 72.4928 72.037L68.7134 69.8144C67.5336 69.1206 66.0464 69.9713 66.0464 71.3401V74.9163C66.0464 76.5059 66.899 77.9733 68.28 78.7604L72.3591 81.0854Z" fill="url(#paint9_linear_95_45422)"/>
<path d="M72.2507 93.3234C73.7256 94.165 75.5596 93.0999 75.5596 91.4018V87.9461C75.5596 86.3787 74.7304 84.9283 73.3796 84.1331L69.6024 81.9093C68.1275 81.041 66.2676 82.1044 66.2676 83.8158V87.3397C66.2676 88.9285 67.1194 90.3954 68.4994 91.1828L72.2507 93.3234Z" fill="#469EFF"/>
<path d="M72.3591 93.4492C73.3915 94.0376 74.6746 93.292 74.6746 92.1037V88.2148C74.6746 86.6467 73.8446 85.1957 72.4928 84.4007L68.7134 82.1782C67.5336 81.4843 66.0464 82.3351 66.0464 83.7038V87.28C66.0464 88.8696 66.899 90.3371 68.28 91.1242L72.3591 93.4492Z" fill="url(#paint10_linear_95_45422)"/>
<path d="M72.2507 105.687C73.7256 106.528 75.5596 105.463 75.5596 103.765V100.309C75.5596 98.742 74.7304 97.2916 73.3796 96.4964L69.6024 94.2726C68.1275 93.4043 66.2676 94.4677 66.2676 96.1791V99.703C66.2676 101.292 67.1194 102.759 68.4994 103.546L72.2507 105.687Z" fill="#469EFF"/>
<path d="M72.3591 105.812C73.3915 106.401 74.6746 105.655 74.6746 104.467V100.578C74.6746 99.01 73.8446 97.5589 72.4928 96.764L68.7134 94.5415C67.5336 93.8476 66.0464 94.6983 66.0464 96.0671V99.6433C66.0464 101.233 66.899 102.7 68.28 103.487L72.3591 105.812Z" fill="url(#paint11_linear_95_45422)"/>
<path d="M69.1113 33.0333L70.8559 29.2566C71.9836 26.8154 72.5474 25.5948 73.0735 25.8528C73.5996 26.1107 73.5996 27.6078 73.5996 30.6019V30.8842C73.5996 31.9641 73.5996 32.5041 73.8152 32.8428L73.8266 32.8603C74.0469 33.1919 74.3982 33.1919 75.1007 33.1919C76.3648 33.1919 76.9969 33.1919 77.2105 33.8053C77.214 33.8155 77.2175 33.8257 77.2208 33.836C77.4225 34.4589 77.0565 35.2512 76.3246 36.8357L74.58 40.6122C73.4523 43.0534 72.8884 44.274 72.3623 44.0161C71.8363 43.7582 71.8363 42.2611 71.8363 39.2669L71.8363 38.9847C71.8363 37.9048 71.8363 37.3648 71.6207 37.0261L71.6093 37.0086C71.389 36.677 71.0377 36.677 70.3352 36.677C69.0711 36.677 68.439 36.677 68.2254 36.0636C68.2219 36.0535 68.2184 36.0432 68.2151 36.0329C68.0134 35.41 68.3794 34.6177 69.1113 33.0333Z" fill="url(#paint12_linear_95_45422)"/>
<path d="M68.6182 34.0186L70.3627 30.242C71.4904 27.8008 72.0543 26.5802 72.5803 26.8381C73.1064 27.0961 73.1064 28.5931 73.1064 31.5873V31.8696C73.1064 32.9495 73.1064 33.4894 73.3221 33.8281L73.3335 33.8457C73.5538 34.1772 73.905 34.1772 74.6075 34.1772C75.8717 34.1772 76.5037 34.1772 76.7173 34.7906C76.7209 34.8008 76.7243 34.811 76.7277 34.8214C76.9293 35.4443 76.5633 36.2365 75.8314 37.821L74.0868 41.5976C72.9591 44.0388 72.3952 45.2594 71.8692 45.0014C71.3431 44.7435 71.3431 43.2464 71.3432 40.2523L71.3432 39.9701C71.3432 38.8901 71.3432 38.3502 71.1275 38.0115L71.1161 37.9939C70.8958 37.6624 70.5445 37.6624 69.8421 37.6624C68.5779 37.6624 67.9458 37.6624 67.7322 37.049C67.7287 37.0388 67.7252 37.0286 67.7219 37.0183C67.5203 36.3953 67.8862 35.6031 68.6182 34.0186Z" fill="url(#paint13_linear_95_45422)"/>
<path d="M110.722 60.1852C110.722 64.6098 107.616 69.9901 103.784 72.2024C99.952 74.4147 96.8457 72.6212 96.8457 68.1967C96.8457 63.7721 99.952 58.3918 103.784 56.1795C107.616 53.9672 110.722 55.7606 110.722 60.1852Z" fill="url(#paint14_linear_95_45422)"/>
<path d="M107.312 60.6492C103.091 58.2124 99.6699 60.1878 99.6699 65.0614V66.2379C99.6699 67.3426 100.445 68.6859 101.402 69.2382L105.736 71.7401L105.553 71.7678C108.099 73.223 109.671 75.931 109.671 78.8639V90.4089C109.671 92.2001 111.123 93.6521 112.914 93.6521C114.789 93.6521 116.273 92.0672 116.15 90.1964L114.931 71.6205C114.946 71.4411 114.954 71.2549 114.954 71.0619C114.954 67.7479 112.627 63.7181 109.757 62.0611L107.312 60.6492Z" fill="url(#paint15_linear_95_45422)"/>
<path fill-rule="evenodd" clip-rule="evenodd" d="M108.733 125.285L111.088 92.0527L114.609 92.3023L112.254 125.534C112.04 128.549 110.636 131.356 108.347 133.253C103.37 137.377 96.1274 135.867 92.9783 130.201L89.4072 124.013L92.7277 123.004L96.0635 128.486C98.1841 132.302 102.889 133.191 106.094 130.535C107.613 129.277 108.584 127.376 108.733 125.285Z" fill="url(#paint16_linear_95_45422)"/>
<defs>
<filter id="filter0_d_95_45422" x="0.436329" y="68.3831" width="174.83" height="117.758" filterUnits="userSpaceOnUse" color-interpolation-filters="sRGB">
<feFlood flood-opacity="0" result="BackgroundImageFix"/>
<feColorMatrix in="SourceAlpha" type="matrix" values="0 0 0 0 0 0 0 0 0 0 0 0 0 0 0 0 0 0 127 0" result="hardAlpha"/>
<feOffset dy="5"/>
<feGaussianBlur stdDeviation="10.4"/>
<feComposite in2="hardAlpha" operator="out"/>
<feColorMatrix type="matrix" values="0 0 0 0 0 0 0 0 0 0 0 0 0 0 0 0 0 0 0.23 0"/>
<feBlend mode="normal" in2="BackgroundImageFix" result="effect1_dropShadow_95_45422"/>
<feBlend mode="normal" in="SourceGraphic" in2="effect1_dropShadow_95_45422" result="shape"/>
</filter>
<linearGradient id="paint0_linear_95_45422" x1="176.554" y1="103.7" x2="21.3909" y2="103.7" gradientUnits="userSpaceOnUse">
<stop stop-color="#DFDFDF"/>
<stop offset="0.442308" stop-color="#EEEEEE"/>
<stop offset="0.649038" stop-color="#D7D7D7"/>
<stop offset="0.807692" stop-color="#E8E8E8"/>
<stop offset="1" stop-color="#D7D7D7"/>
</linearGradient>
<linearGradient id="paint1_linear_95_45422" x1="176.554" y1="103.7" x2="21.3909" y2="103.7" gradientUnits="userSpaceOnUse">
<stop stop-color="#DFDFDF"/>
<stop offset="0.442308" stop-color="#EEEEEE"/>
<stop offset="0.649038" stop-color="#D7D7D7"/>
<stop offset="0.807692" stop-color="#E8E8E8"/>
<stop offset="1" stop-color="#D7D7D7"/>
</linearGradient>
<linearGradient id="paint2_linear_95_45422" x1="176.554" y1="103.7" x2="21.3909" y2="103.7" gradientUnits="userSpaceOnUse">
<stop stop-color="#DFDFDF"/>
<stop offset="0.442308" stop-color="#EEEEEE"/>
<stop offset="0.649038" stop-color="#D7D7D7"/>
<stop offset="0.807692" stop-color="#E8E8E8"/>
<stop offset="1" stop-color="#D7D7D7"/>
</linearGradient>
<linearGradient id="paint3_linear_95_45422" x1="92.8457" y1="32.0548" x2="61.3617" y2="32.8984" gradientUnits="userSpaceOnUse">
<stop stop-color="#DBDBDB"/>
<stop offset="1" stop-color="white"/>
</linearGradient>
<linearGradient id="paint4_linear_95_45422" x1="57.0777" y1="118.886" x2="57.0777" y2="18.171" gradientUnits="userSpaceOnUse">
<stop stop-color="#DFDFDF"/>
<stop offset="1" stop-color="white"/>
</linearGradient>
<linearGradient id="paint5_linear_95_45422" x1="57.0777" y1="118.886" x2="57.0777" y2="18.171" gradientUnits="userSpaceOnUse">
<stop stop-color="#DFDFDF"/>
<stop offset="1" stop-color="white"/>
</linearGradient>
<linearGradient id="paint6_linear_95_45422" x1="62.6919" y1="97.2958" x2="77.9666" y2="99.39" gradientUnits="userSpaceOnUse">
<stop stop-color="white"/>
<stop offset="1" stop-color="#EEEEEE"/>
</linearGradient>
<linearGradient id="paint7_linear_95_45422" x1="64.7992" y1="90.4655" x2="77.1176" y2="90.4655" gradientUnits="userSpaceOnUse">
<stop stop-color="#808492"/>
<stop offset="0.490385" stop-color="#2E2F33"/>
<stop offset="0.865385" stop-color="#2E2F33"/>
<stop offset="1" stop-color="#2E2F33"/>
</linearGradient>
<linearGradient id="paint8_linear_95_45422" x1="70.803" y1="56.8726" x2="70.803" y2="68.9271" gradientUnits="userSpaceOnUse">
<stop stop-color="white"/>
<stop offset="0.663462" stop-color="#4EA3FF"/>
</linearGradient>
<linearGradient id="paint9_linear_95_45422" x1="70.803" y1="69.2363" x2="70.803" y2="81.2909" gradientUnits="userSpaceOnUse">
<stop stop-color="white"/>
<stop offset="0.663462" stop-color="#4EA3FF"/>
</linearGradient>
<linearGradient id="paint10_linear_95_45422" x1="70.803" y1="81.6001" x2="70.803" y2="93.6546" gradientUnits="userSpaceOnUse">
<stop stop-color="white"/>
<stop offset="0.663462" stop-color="#4EA3FF"/>
</linearGradient>
<linearGradient id="paint11_linear_95_45422" x1="70.803" y1="93.9634" x2="70.803" y2="106.018" gradientUnits="userSpaceOnUse">
<stop stop-color="white"/>
<stop offset="0.663462" stop-color="#4EA3FF"/>
</linearGradient>
<linearGradient id="paint12_linear_95_45422" x1="72.7179" y1="25.8188" x2="72.7179" y2="44.05" gradientUnits="userSpaceOnUse">
<stop stop-color="#79B9FF"/>
<stop offset="1" stop-color="#007AFF"/>
</linearGradient>
<linearGradient id="paint13_linear_95_45422" x1="72.2248" y1="26.8042" x2="72.2248" y2="45.0354" gradientUnits="userSpaceOnUse">
<stop stop-color="#6DAFF8"/>
<stop offset="1" stop-color="#1C69BD"/>
</linearGradient>
<linearGradient id="paint14_linear_95_45422" x1="96.8457" y1="71.8323" x2="104.45" y2="71.8323" gradientUnits="userSpaceOnUse">
<stop stop-color="#6CAEF7"/>
<stop offset="1" stop-color="#206CC0"/>
</linearGradient>
<linearGradient id="paint15_linear_95_45422" x1="99.6699" y1="84.354" x2="118.533" y2="83.6566" gradientUnits="userSpaceOnUse">
<stop offset="0.5625" stop-color="#2E2F33"/>
<stop offset="0.836538" stop-color="#808492"/>
<stop offset="1" stop-color="#2E2F33"/>
</linearGradient>
<linearGradient id="paint16_linear_95_45422" x1="89.4072" y1="123.704" x2="103.218" y2="123.704" gradientUnits="userSpaceOnUse">
<stop stop-color="#808492"/>
<stop offset="1" stop-color="#2E2F33"/>
</linearGradient>
</defs>
</svg>
