<svg width="25" height="24" viewBox="0 0 25 24" fill="none" xmlns="http://www.w3.org/2000/svg">
<path fill-rule="evenodd" clip-rule="evenodd" d="M3.79845 3.46447C2.33398 4.92893 2.33398 7.28595 2.33398 12C2.33398 16.714 2.33398 19.0711 3.79845 20.5355C5.26292 22 7.61994 22 12.334 22C17.048 22 19.4051 22 20.8695 20.5355C22.334 19.0711 22.334 16.714 22.334 12C22.334 7.28595 22.334 4.92893 20.8695 3.46447C19.4051 2 17.048 2 12.334 2C7.61994 2 5.26292 2 3.79845 3.46447ZM12.334 13C12.8863 13 13.334 12.5523 13.334 12C13.334 11.4477 12.8863 11 12.334 11C11.7817 11 11.334 11.4477 11.334 12C11.334 12.5523 11.7817 13 12.334 13ZM9.33398 12C9.33398 12.5523 8.88627 13 8.33398 13C7.7817 13 7.33398 12.5523 7.33398 12C7.33398 11.4477 7.7817 11 8.33398 11C8.88627 11 9.33398 11.4477 9.33398 12ZM16.334 13C16.8863 13 17.334 12.5523 17.334 12C17.334 11.4477 16.8863 11 16.334 11C15.7817 11 15.334 11.4477 15.334 12C15.334 12.5523 15.7817 13 16.334 13Z" fill="#97C2F0"/>
</svg>
